<?xml version="1.0" encoding="utf-8"?>
<!-- Generator: Adobe Illustrator 26.1.0, SVG Export Plug-In . SVG Version: 6.00 Build 0)  -->
<svg version="1.1" id="Layer_1" xmlns="http://www.w3.org/2000/svg" xmlns:xlink="http://www.w3.org/1999/xlink" x="0px" y="0px"
	 viewBox="0 0 14 14" style="enable-background:new 0 0 14 14;" xml:space="preserve">
<g>
	<g>
		<path d="M12.6,3.4c0-0.3-0.1-0.6-0.3-0.8l-1-1c-0.2-0.2-0.5-0.3-0.8-0.3c-0.3,0-0.6,0.1-0.8,0.3L9.4,1.9L9.2,1.7L7.7,3.1l0.2,0.2
			l-5.1,5l-0.9,3.4l3.5-0.9l5.1-5L10.7,6l1.5-1.4L12,4.4l0.3-0.3C12.5,3.9,12.6,3.6,12.6,3.4z M3.8,8.2l4.6-4.4L9,4.3L4.4,8.8
			C4.3,8.8,4.2,8.9,4.1,8.9c-0.1,0-0.2,0-0.3-0.1C3.7,8.6,3.7,8.4,3.8,8.2z M2.8,10.8l0.1-0.4l0.3,0.3L2.8,10.8z M4,10.5L3.1,9.6
			l0.1-0.5c0,0,0.1,0.1,0.1,0.1c0.2,0.2,0.4,0.3,0.7,0.3c0,0.3,0.1,0.5,0.3,0.7c0,0,0.1,0.1,0.1,0.1L4,10.5z M5.4,9.8
			C5.3,9.9,5,9.9,4.9,9.8c-0.1-0.1-0.1-0.4,0-0.5c0,0,0,0,0,0l4.6-4.4L10,5.3L5.4,9.8z M10.7,5.1l-2-1.9l0.5-0.5l2,1.9L10.7,5.1z
			 M11.8,3.6l-0.3,0.3L9.9,2.4l0.3-0.3C10.2,2,10.3,2,10.5,2c0.1,0,0.2,0,0.3,0.1l1,1c0.1,0.1,0.1,0.2,0.1,0.3
			C11.9,3.5,11.8,3.6,11.8,3.6z"/>
	</g>
</g>
</svg>
